<mxfile host="Electron" agent="Mozilla/5.0 (Windows NT 10.0; Win64; x64) AppleWebKit/537.36 (KHTML, like Gecko) draw.io/27.0.9 Chrome/134.0.6998.205 Electron/35.4.0 Safari/537.36" version="27.0.9">
  <diagram id="C5RBs43oDa-KdzZeNtuy" name="Page-1">
    <mxGraphModel dx="1426" dy="841" grid="1" gridSize="10" guides="1" tooltips="1" connect="1" arrows="1" fold="1" page="1" pageScale="1" pageWidth="827" pageHeight="1169" math="0" shadow="0">
      <root>
        <mxCell id="WIyWlLk6GJQsqaUBKTNV-0" />
        <mxCell id="WIyWlLk6GJQsqaUBKTNV-1" parent="WIyWlLk6GJQsqaUBKTNV-0" />
        <mxCell id="gvsxq40w_VTdR0jsHKIa-0" value="Start" style="strokeWidth=2;html=1;shape=mxgraph.flowchart.start_1;whiteSpace=wrap;" vertex="1" parent="WIyWlLk6GJQsqaUBKTNV-1">
          <mxGeometry x="364" y="20" width="100" height="60" as="geometry" />
        </mxCell>
        <mxCell id="gvsxq40w_VTdR0jsHKIa-17" value="End" style="strokeWidth=2;html=1;shape=mxgraph.flowchart.terminator;whiteSpace=wrap;" vertex="1" parent="WIyWlLk6GJQsqaUBKTNV-1">
          <mxGeometry x="364" y="680" width="100" height="60" as="geometry" />
        </mxCell>
        <mxCell id="gvsxq40w_VTdR0jsHKIa-22" style="edgeStyle=orthogonalEdgeStyle;rounded=0;orthogonalLoop=1;jettySize=auto;html=1;entryX=1;entryY=0.5;entryDx=0;entryDy=0;" edge="1" parent="WIyWlLk6GJQsqaUBKTNV-1" source="gvsxq40w_VTdR0jsHKIa-19" target="gvsxq40w_VTdR0jsHKIa-21">
          <mxGeometry relative="1" as="geometry" />
        </mxCell>
        <mxCell id="gvsxq40w_VTdR0jsHKIa-23" value="No" style="edgeLabel;html=1;align=center;verticalAlign=middle;resizable=0;points=[];" vertex="1" connectable="0" parent="gvsxq40w_VTdR0jsHKIa-22">
          <mxGeometry x="-0.2222" y="2" relative="1" as="geometry">
            <mxPoint as="offset" />
          </mxGeometry>
        </mxCell>
        <mxCell id="gvsxq40w_VTdR0jsHKIa-25" style="edgeStyle=orthogonalEdgeStyle;rounded=0;orthogonalLoop=1;jettySize=auto;html=1;entryX=0.5;entryY=0;entryDx=0;entryDy=0;" edge="1" parent="WIyWlLk6GJQsqaUBKTNV-1" source="gvsxq40w_VTdR0jsHKIa-19" target="gvsxq40w_VTdR0jsHKIa-24">
          <mxGeometry relative="1" as="geometry" />
        </mxCell>
        <mxCell id="gvsxq40w_VTdR0jsHKIa-32" value="Yes" style="edgeLabel;html=1;align=center;verticalAlign=middle;resizable=0;points=[];" vertex="1" connectable="0" parent="gvsxq40w_VTdR0jsHKIa-25">
          <mxGeometry x="0.36" y="1" relative="1" as="geometry">
            <mxPoint as="offset" />
          </mxGeometry>
        </mxCell>
        <mxCell id="gvsxq40w_VTdR0jsHKIa-19" value="Is user logged in?" style="strokeWidth=2;html=1;shape=mxgraph.flowchart.decision;whiteSpace=wrap;" vertex="1" parent="WIyWlLk6GJQsqaUBKTNV-1">
          <mxGeometry x="354" y="110" width="120" height="100" as="geometry" />
        </mxCell>
        <mxCell id="gvsxq40w_VTdR0jsHKIa-20" style="edgeStyle=orthogonalEdgeStyle;rounded=0;orthogonalLoop=1;jettySize=auto;html=1;entryX=0.5;entryY=0;entryDx=0;entryDy=0;entryPerimeter=0;" edge="1" parent="WIyWlLk6GJQsqaUBKTNV-1" source="gvsxq40w_VTdR0jsHKIa-0" target="gvsxq40w_VTdR0jsHKIa-19">
          <mxGeometry relative="1" as="geometry" />
        </mxCell>
        <mxCell id="gvsxq40w_VTdR0jsHKIa-21" value="Redirect to login" style="rounded=1;whiteSpace=wrap;html=1;absoluteArcSize=1;arcSize=14;strokeWidth=2;" vertex="1" parent="WIyWlLk6GJQsqaUBKTNV-1">
          <mxGeometry x="210" y="135" width="100" height="50" as="geometry" />
        </mxCell>
        <mxCell id="gvsxq40w_VTdR0jsHKIa-27" style="edgeStyle=orthogonalEdgeStyle;rounded=0;orthogonalLoop=1;jettySize=auto;html=1;entryX=0.5;entryY=0;entryDx=0;entryDy=0;" edge="1" parent="WIyWlLk6GJQsqaUBKTNV-1" source="gvsxq40w_VTdR0jsHKIa-24" target="gvsxq40w_VTdR0jsHKIa-26">
          <mxGeometry relative="1" as="geometry" />
        </mxCell>
        <mxCell id="gvsxq40w_VTdR0jsHKIa-24" value="Show create gallery form" style="rounded=1;whiteSpace=wrap;html=1;absoluteArcSize=1;arcSize=14;strokeWidth=2;" vertex="1" parent="WIyWlLk6GJQsqaUBKTNV-1">
          <mxGeometry x="364" y="240" width="100" height="50" as="geometry" />
        </mxCell>
        <mxCell id="gvsxq40w_VTdR0jsHKIa-26" value="User submits info" style="rounded=1;whiteSpace=wrap;html=1;absoluteArcSize=1;arcSize=14;strokeWidth=2;" vertex="1" parent="WIyWlLk6GJQsqaUBKTNV-1">
          <mxGeometry x="364" y="320" width="100" height="50" as="geometry" />
        </mxCell>
        <mxCell id="gvsxq40w_VTdR0jsHKIa-30" style="edgeStyle=orthogonalEdgeStyle;rounded=0;orthogonalLoop=1;jettySize=auto;html=1;entryX=0;entryY=0.5;entryDx=0;entryDy=0;" edge="1" parent="WIyWlLk6GJQsqaUBKTNV-1" source="gvsxq40w_VTdR0jsHKIa-28" target="gvsxq40w_VTdR0jsHKIa-26">
          <mxGeometry relative="1" as="geometry">
            <Array as="points">
              <mxPoint x="334" y="440" />
              <mxPoint x="334" y="345" />
            </Array>
          </mxGeometry>
        </mxCell>
        <mxCell id="gvsxq40w_VTdR0jsHKIa-31" value="No" style="edgeLabel;html=1;align=center;verticalAlign=middle;resizable=0;points=[];" vertex="1" connectable="0" parent="gvsxq40w_VTdR0jsHKIa-30">
          <mxGeometry x="-0.0345" y="2" relative="1" as="geometry">
            <mxPoint as="offset" />
          </mxGeometry>
        </mxCell>
        <mxCell id="gvsxq40w_VTdR0jsHKIa-34" style="edgeStyle=orthogonalEdgeStyle;rounded=0;orthogonalLoop=1;jettySize=auto;html=1;" edge="1" parent="WIyWlLk6GJQsqaUBKTNV-1" source="gvsxq40w_VTdR0jsHKIa-28" target="gvsxq40w_VTdR0jsHKIa-33">
          <mxGeometry relative="1" as="geometry" />
        </mxCell>
        <mxCell id="gvsxq40w_VTdR0jsHKIa-28" value="Inputs valid?" style="strokeWidth=2;html=1;shape=mxgraph.flowchart.decision;whiteSpace=wrap;" vertex="1" parent="WIyWlLk6GJQsqaUBKTNV-1">
          <mxGeometry x="354" y="400" width="120" height="80" as="geometry" />
        </mxCell>
        <mxCell id="gvsxq40w_VTdR0jsHKIa-29" style="edgeStyle=orthogonalEdgeStyle;rounded=0;orthogonalLoop=1;jettySize=auto;html=1;entryX=0.5;entryY=0;entryDx=0;entryDy=0;entryPerimeter=0;" edge="1" parent="WIyWlLk6GJQsqaUBKTNV-1" source="gvsxq40w_VTdR0jsHKIa-26" target="gvsxq40w_VTdR0jsHKIa-28">
          <mxGeometry relative="1" as="geometry" />
        </mxCell>
        <mxCell id="gvsxq40w_VTdR0jsHKIa-36" style="edgeStyle=orthogonalEdgeStyle;rounded=0;orthogonalLoop=1;jettySize=auto;html=1;entryX=0.5;entryY=0;entryDx=0;entryDy=0;" edge="1" parent="WIyWlLk6GJQsqaUBKTNV-1" source="gvsxq40w_VTdR0jsHKIa-33" target="gvsxq40w_VTdR0jsHKIa-35">
          <mxGeometry relative="1" as="geometry" />
        </mxCell>
        <mxCell id="gvsxq40w_VTdR0jsHKIa-33" value="Save Gallery" style="rounded=1;whiteSpace=wrap;html=1;absoluteArcSize=1;arcSize=14;strokeWidth=2;" vertex="1" parent="WIyWlLk6GJQsqaUBKTNV-1">
          <mxGeometry x="364" y="510" width="100" height="50" as="geometry" />
        </mxCell>
        <mxCell id="gvsxq40w_VTdR0jsHKIa-37" style="edgeStyle=orthogonalEdgeStyle;rounded=0;orthogonalLoop=1;jettySize=auto;html=1;" edge="1" parent="WIyWlLk6GJQsqaUBKTNV-1" source="gvsxq40w_VTdR0jsHKIa-35" target="gvsxq40w_VTdR0jsHKIa-17">
          <mxGeometry relative="1" as="geometry" />
        </mxCell>
        <mxCell id="gvsxq40w_VTdR0jsHKIa-35" value="Show Success" style="rounded=1;whiteSpace=wrap;html=1;absoluteArcSize=1;arcSize=14;strokeWidth=2;" vertex="1" parent="WIyWlLk6GJQsqaUBKTNV-1">
          <mxGeometry x="364" y="600" width="100" height="50" as="geometry" />
        </mxCell>
      </root>
    </mxGraphModel>
  </diagram>
</mxfile>
